<svg id="Layer_1" data-name="Layer 1" xmlns="http://www.w3.org/2000/svg" viewBox="0 0 683.38 124"><defs><style>.cls-1{fill:#00c3a5;}</style></defs><title>doctoralialogo-freelogovectors.net</title><path class="cls-1" d="M673.24,355.2c6.14-.51,12.81-.66,19.24-.66,15.16,0,24.21,5.86,24.21,22.42V418.4H704l-.63-6.2h-.16c-4.36,4.7-10.7,7.44-18.81,7.44-10.74,0-19.28-7-19.28-20.75,0-12.82,10.69-24.76,37.46-19.08v-3.74c0-7.39-4.33-9.45-12.87-9.45-5.24,0-9.68.35-16.44.93Zm29.31,34.42c-11.34-2.89-22.68.66-22.68,9.42,0,5.81,3.86,9.23,9.61,9a22.08,22.08,0,0,0,13.07-5.35ZM655.21,356.4l-14.15.09V418.4h14.15Zm-7-8.75a8,8,0,1,0-8-8A8,8,0,0,0,648.2,347.65Zm-20.74-16-14.14,1.64V418.4h14.14Zm-71.09,23.6c6.14-.51,12.81-.66,19.24-.66,15.16,0,24.21,5.86,24.21,22.42V418.4H587.1l-.63-6.2h-.16c-4.36,4.7-10.7,7.44-18.81,7.44-10.74,0-19.28-7-19.28-20.75,0-12.82,10.69-24.76,37.46-19.08v-3.74c0-7.39-4.33-9.45-12.87-9.45-5.24,0-9.68.35-16.44.93Zm29.31,34.42c-11.34-2.89-22.68.66-22.68,9.42,0,5.81,3.86,9.23,9.61,9a22.08,22.08,0,0,0,13.07-5.35v-13ZM510.89,356.4v62H525v-31c0-7.78,5.94-16.36,18.87-18.89v-13c-8.88.49-16.51,6.34-19.64,10.91h-.12l-1-10Zm-68,31.32v-.64c0-20.72,9.53-32.54,29.23-32.54s29.11,11.82,29.11,32.54v.64c0,20.72-9.53,32.54-29.11,32.54S442.93,408.44,442.93,387.72Zm29.2-21.4c-10,0-14.63,6.79-14.63,21s4.62,20.86,14.63,20.86,14.51-6.65,14.51-20.86S482.15,366.32,472.13,366.32Zm-65-26.88v58.65c0,14.27,4.33,22.17,20.51,22.17a43.93,43.93,0,0,0,8.12-.86V407.73a24,24,0,0,1-5.57.75c-5.59,0-8.92-1.28-8.92-12.1V367.87H435.8V356.4H421.31V337.8l-14.14,1.64Zm-43.12,48c0-13.55,5.9-20.77,17.59-20.77a110.42,110.42,0,0,1,14.5,1.22V356.4a88.82,88.82,0,0,0-16.3-1.55c-17.42,0-30.52,9.59-30.57,32.55S362.42,420,379.84,420a88.82,88.82,0,0,0,16.3-1.55V406.94a108.7,108.7,0,0,1-14.5,1.23c-11.69,0-17.55-7.22-17.59-20.77Zm-82.12.32v-.64c0-20.72,9.53-32.54,29.24-32.54s29.11,11.82,29.11,32.54v.64c0,20.72-9.54,32.54-29.11,32.54S281.93,408.44,281.93,387.72Zm29.2-21.4c-10,0-14.63,6.79-14.63,21s4.62,20.86,14.63,20.86,14.51-6.65,14.51-20.86S321.15,366.32,311.13,366.32ZM206.91,418.4V331.6h21.8c30.38,0,44.52,9.12,44.52,43.4s-14.14,43.4-44.52,43.4ZM257,375c0-19.51-4-29.36-24.9-29.36h-9.7v58.72h9.7c20.94,0,24.9-9.85,24.9-29.36ZM105.52,413.22,126,437l20.4-14.82-19.92-32.95c-9,5.55-17.81,16.3-20.94,24ZM76.1,437a124.4,124.4,0,0,1,87.41-67.27l-7.82-24.08A140.1,140.1,0,0,0,48,418.91L76.1,437Zm6.13-81.78L41.09,345.5l-7.78,24,28.56,12.05a104,104,0,0,1,19.6-15.5c9.75-6,18.26-10,32.73-14.92L111,313H85.78l-3.55,42.18Z" transform="translate(-33.31 -313)"/></svg>